<svg width="45" height="19" viewBox="0 0 45 19" fill="none" xmlns="http://www.w3.org/2000/svg">
<mask id="path-1-outside-1" maskUnits="userSpaceOnUse" x="0" y="0" width="45" height="19" fill="black">
<rect fill="white" width="45" height="19"/>
<path fill-rule="evenodd" clip-rule="evenodd" d="M35.8152 1.74318L42.6746 8.60169L42.9439 8.87091L23.875 8.87091C23.8734 8.87091 23.8719 8.87092 23.8703 8.87094L1.43751 8.87094C1.19589 8.87094 1 9.06683 1 9.30845C1 9.55008 1.19589 9.74593 1.43751 9.74597H42.9438L35.8152 16.8737C35.6474 17.0475 35.6522 17.3244 35.826 17.4923L35.8275 17.4938C35.9963 17.6563 36.2648 17.6573 36.4348 17.4932L44.3098 9.61815C44.3918 9.53596 44.4377 9.42452 44.4375 9.3084C44.4375 9.28737 44.436 9.2665 44.433 9.24594C44.4202 9.15548 44.3791 9.06825 44.3096 8.99859L44.3088 8.99781L36.4338 1.12282C36.2601 0.954938 35.9831 0.95978 35.8152 1.13356C35.6813 1.27223 35.6569 1.47724 35.742 1.64009C35.7609 1.67663 35.7853 1.71109 35.8152 1.74226L35.8152 1.74318Z"/>
</mask>
<path fill-rule="evenodd" clip-rule="evenodd" d="M35.8152 1.74318L42.6746 8.60169L42.9439 8.87091L23.875 8.87091C23.8734 8.87091 23.8719 8.87092 23.8703 8.87094L1.43751 8.87094C1.19589 8.87094 1 9.06683 1 9.30845C1 9.55008 1.19589 9.74593 1.43751 9.74597H42.9438L35.8152 16.8737C35.6474 17.0475 35.6522 17.3244 35.826 17.4923L35.8275 17.4938C35.9963 17.6563 36.2648 17.6573 36.4348 17.4932L44.3098 9.61815C44.3918 9.53596 44.4377 9.42452 44.4375 9.3084C44.4375 9.28737 44.436 9.2665 44.433 9.24594C44.4202 9.15548 44.3791 9.06825 44.3096 8.99859L44.3088 8.99781L36.4338 1.12282C36.2601 0.954938 35.9831 0.95978 35.8152 1.13356C35.6813 1.27223 35.6569 1.47724 35.742 1.64009C35.7609 1.67663 35.7853 1.71109 35.8152 1.74226L35.8152 1.74318Z" fill="#0D7580"/>
<path d="M42.6746 8.60169L43.0282 8.24812V8.24812L42.6746 8.60169ZM35.8152 1.74318L35.3154 1.75562L35.3204 1.95543L35.4617 2.09675L35.8152 1.74318ZM42.9439 8.87091V9.37091H44.1511L43.2974 8.51734L42.9439 8.87091ZM23.875 8.87091V9.37091V8.87091ZM23.8703 8.87094V9.37097L23.8756 9.37091L23.8703 8.87094ZM1.43751 8.87094V8.37094V8.87094ZM1.43751 9.74597L1.43743 10.246H1.43751V9.74597ZM42.9438 9.74597L43.2974 10.0995L44.1511 9.24597H42.9438V9.74597ZM35.8152 16.8737L35.4617 16.52L35.4556 16.5263L35.8152 16.8737ZM35.826 17.4923L35.4786 17.8519L35.4795 17.8528L35.826 17.4923ZM35.8275 17.4938L36.1743 17.1336L36.174 17.1333L35.8275 17.4938ZM36.4348 17.4932L36.7822 17.8528L36.7883 17.8467L36.4348 17.4932ZM44.3098 9.61815L44.6633 9.9717L44.6637 9.97135L44.3098 9.61815ZM44.4375 9.3084L43.9375 9.30858V9.30929L44.4375 9.3084ZM44.433 9.24594L43.938 9.316L43.9382 9.31744L44.433 9.24594ZM44.3096 8.99859L44.6636 8.64551L44.6636 8.64547L44.3096 8.99859ZM44.3088 8.99781L44.6628 8.64469L44.6624 8.64426L44.3088 8.99781ZM36.4338 1.12282L36.7874 0.769209L36.7812 0.763204L36.4338 1.12282ZM35.8152 1.13356L35.4556 0.786173L35.4556 0.786201L35.8152 1.13356ZM35.742 1.64009L36.1861 1.41046L36.1851 1.40846L35.742 1.64009ZM35.8152 1.74226L36.3151 1.72981L36.3102 1.53586L36.1758 1.39592L35.8152 1.74226ZM43.0282 8.24812L36.1688 1.3896L35.4617 2.09675L42.3211 8.95527L43.0282 8.24812ZM43.2974 8.51734L43.0282 8.24812L42.3211 8.95527L42.5903 9.22449L43.2974 8.51734ZM23.875 9.37091L42.9439 9.37091V8.37091L23.875 8.37091V9.37091ZM23.8756 9.37091L23.875 9.37091V8.37091C23.8717 8.37091 23.8684 8.37093 23.865 8.37097L23.8756 9.37091ZM1.43751 9.37094L23.8703 9.37094V8.37094L1.43751 8.37094V9.37094ZM1.5 9.30845C1.5 9.34297 1.47204 9.37094 1.43751 9.37094V8.37094C0.919745 8.37094 0.5 8.79069 0.5 9.30845H1.5ZM1.4376 9.24597C1.47198 9.24598 1.5 9.27386 1.5 9.30845H0.5C0.5 9.82629 0.919804 10.2459 1.43743 10.246L1.4376 9.24597ZM42.9438 9.24597H1.43751V10.246H42.9438V9.24597ZM36.1688 17.2272L43.2974 10.0995L42.5903 9.39239L35.4617 16.5201L36.1688 17.2272ZM36.1734 17.1327C36.1981 17.1566 36.1989 17.1962 36.1749 17.2211L35.4556 16.5263C35.0958 16.8988 35.1063 17.4923 35.4786 17.8519L36.1734 17.1327ZM36.174 17.1333L36.1725 17.1318L35.4795 17.8528L35.481 17.8543L36.174 17.1333ZM36.0874 17.1335C36.1118 17.1099 36.1501 17.1102 36.1743 17.1336L35.4807 17.8539C35.8425 18.2024 36.4179 18.2046 36.7821 17.8528L36.0874 17.1335ZM43.9562 9.2646L36.0812 17.1396L36.7883 17.8467L44.6633 9.9717L43.9562 9.2646ZM43.9375 9.30929C43.9375 9.29278 43.944 9.2768 43.9559 9.26495L44.6637 9.97135C44.8396 9.79511 44.938 9.55625 44.9375 9.30751L43.9375 9.30929ZM43.9382 9.31744C43.9377 9.31454 43.9375 9.31157 43.9375 9.30858L44.9375 9.30822C44.9375 9.26318 44.9342 9.21847 44.9279 9.17443L43.9382 9.31744ZM43.9556 9.35168C43.9461 9.34214 43.9398 9.32896 43.938 9.316L44.9281 9.17587C44.9007 8.982 44.8121 8.79437 44.6636 8.64551L43.9556 9.35168ZM43.9548 9.35093L43.9556 9.35171L44.6636 8.64547L44.6628 8.64469L43.9548 9.35093ZM36.0803 1.47637L43.9553 9.35137L44.6624 8.64426L36.7874 0.769262L36.0803 1.47637ZM36.1748 1.48095C36.1509 1.5057 36.1114 1.50649 36.0864 1.48243L36.7812 0.763204C36.4088 0.40339 35.8152 0.413864 35.4556 0.786173L36.1748 1.48095ZM36.1851 1.40846C36.1971 1.43144 36.1944 1.46068 36.1748 1.48092L35.4556 0.786201C35.1681 1.08378 35.1166 1.52305 35.2989 1.87172L36.1851 1.40846ZM36.1758 1.39592C36.1795 1.39978 36.1832 1.40471 36.1861 1.41046L35.2978 1.86972C35.3386 1.94854 35.391 2.0224 35.4546 2.0886L36.1758 1.39592ZM36.3151 1.73073L36.3151 1.72981L35.3154 1.7547L35.3154 1.75562L36.3151 1.73073Z" fill="#0D7580" mask="url(#path-1-outside-1)"/>
</svg>
