<svg width="1437" height="1415" viewBox="0 0 1437 1415" fill="none" xmlns="http://www.w3.org/2000/svg">
<g clip-path="url(#clip0)">
<path d="M637.839 652.585C772.946 565.053 953.592 603.58 1041.02 739.066L1199.58 983.814L1052.51 1079.38L1039.65 1059.19L893.954 834.631C859.202 780.936 787.298 765.608 733.629 800.297C679.96 834.987 664.705 906.86 699.457 960.555L845.154 1185.12L858.011 1205.3L710.63 1300.61L551.503 1055.91C463.813 920.739 502.731 740.117 637.839 652.585Z" stroke="#F5F5F5" stroke-width="2" stroke-miterlimit="10"/>
<path d="M352.293 632.093C258.622 500.937 289.308 318.762 420.393 225.247L657.395 56.419L759.426 199.802L739.927 213.728L522.423 368.63C470.426 405.765 458.088 477.947 495.597 530.233C532.794 582.259 605.004 594.67 657.26 557.223L875.024 402.008L894.523 388.082L996.553 531.466L759.291 700.606C627.893 793.861 445.391 763.303 352.293 632.093Z" stroke="#F5F5F5" stroke-width="2" stroke-miterlimit="10"/>
</g>
<defs>
<clipPath id="clip0">
<rect width="1097.49" height="927.627" fill="white" transform="translate(592.639) rotate(39.7081)"/>
</clipPath>
</defs>
</svg>
