<svg width="976" height="932" viewBox="0 0 976 932" fill="none" xmlns="http://www.w3.org/2000/svg">
<g clip-path="url(#clip0)">
<path d="M426.409 438.347C507.807 362.653 635.25 367.228 710.908 448.893L847.998 596.342L759.427 678.93L748.27 666.742L622.337 531.481C592.283 499.128 541.557 497.312 509.214 527.325C476.87 557.338 475.095 608.039 505.148 640.391L631.081 775.652L642.238 787.841L553.424 870.289L415.951 722.944C340.154 641.523 345.01 514.041 426.409 438.347Z" stroke="#E5E7EA" stroke-width="2" stroke-miterlimit="10"/>
<path d="M229.795 458.593C150.412 380.619 149.485 253.067 227.432 173.786L368.391 30.6136L454.921 115.901L443.328 127.704L313.962 259.073C283.048 290.549 283.293 341.11 315.053 372.174C346.569 403.099 397.154 402.896 428.207 371.176L557.713 239.564L569.306 227.76L655.836 313.048L514.737 456.464C436.546 535.605 308.794 536.672 229.795 458.593Z" stroke="#E5E7EA" stroke-width="2" stroke-miterlimit="10"/>
</g>
<defs>
<clipPath id="clip0">
<rect width="757.702" height="640.503" fill="white" transform="translate(317.609) rotate(29.7275)"/>
</clipPath>
</defs>
</svg>
