<svg width="727" height="853" viewBox="0 0 727 853" fill="none" xmlns="http://www.w3.org/2000/svg">
<g clip-path="url(#clip0)">
<path d="M368.539 500.072C252.764 460.513 190.881 334.524 230.717 218.646L302.389 8.94914L428.584 51.8764L422.568 69.0406L356.911 261.573C341.172 307.558 365.808 357.703 411.749 373.455C457.69 389.207 507.789 364.545 523.528 318.56L589.185 126.027L595.201 108.863L721.387 152.099L650.015 362.113C610.488 478 484.315 539.63 368.539 500.072Z" stroke="#E5E7EA" stroke-width="2" stroke-miterlimit="10"/>
<path d="M490.492 680.234C456.174 797.805 332.943 865.081 215.484 830.737L3.2662 768.525L40.958 640.216L58.439 645.317L253.176 702.428C299.792 716.032 348.704 689.483 362.306 642.513C375.9 595.852 349.378 546.895 302.454 533.282L107.408 476.164L89.9266 471.062L127.618 342.753L340.145 404.973C457.596 439.627 525.111 562.98 490.492 680.234Z" stroke="#E5E7EA" stroke-width="2" stroke-miterlimit="10"/>
</g>
<defs>
<clipPath id="clip0">
<rect width="834" height="705" fill="white" transform="translate(0 833.71) rotate(-88.4877)"/>
</clipPath>
</defs>
</svg>
