<svg width="112" height="104" viewBox="0 0 112 104" fill="none" xmlns="http://www.w3.org/2000/svg">
<path d="M31.7028 75.919C30.1335 70.459 28.891 65.713 28.0101 61.8131C26.8144 56.5183 24.6523 51.5041 21.5837 46.9101C19.2395 43.4007 18.0005 39.3055 18.0005 35.0666C18.0003 30.2889 19.607 25.6864 22.546 21.9372C23.2171 22.9601 23.7626 24.1485 24.1008 25.5308L24.7825 28.3155C25.0246 29.3045 25.9049 29.9951 26.9229 29.9951C27.941 29.9951 28.8212 29.3045 29.0634 28.3155L29.745 25.531C30.907 20.785 34.4987 18.3079 37.3068 17.0654C37.3925 17.0273 37.475 16.9823 37.5529 16.9302C38.1988 16.4995 38.5847 15.7787 38.5847 15.0022C38.5847 14.5474 38.4491 14.1136 38.2098 13.7441C38.6532 13.7201 39.0968 13.7089 39.5398 13.712C43.4976 13.7454 47.3533 14.8698 50.6901 16.9637C52.7409 18.2506 55.0911 18.8939 57.4416 18.8939C59.7921 18.8939 62.1426 18.2506 64.1931 16.9637C66.8754 15.2804 69.8286 14.2372 72.9705 13.8625C73.8697 13.7553 74.5118 12.9393 74.4046 12.0401C74.2974 11.1406 73.4808 10.4981 72.5822 10.6059C68.9549 11.0384 65.5461 12.2428 62.4499 14.1856C59.4073 16.095 55.4755 16.095 52.4329 14.1856C48.5814 11.7686 44.1324 10.4708 39.5671 10.4325C37.7073 10.4163 35.8525 10.6138 34.0483 11.013C32.1841 9.56491 30.4789 7.47257 29.7446 4.47307L29.063 1.6886C28.8208 0.699627 27.9405 0.0090332 26.9225 0.0090332C25.9044 0.0090332 25.0242 0.699627 24.782 1.6886L24.1004 4.47307C22.9386 9.21885 19.347 11.6962 16.5389 12.9387C16.4531 12.9768 16.3706 13.0218 16.2928 13.0739C15.6468 13.5046 15.2609 14.2254 15.2609 15.0019C15.2609 15.7785 15.6468 16.4993 16.2928 16.93C16.3706 16.9821 16.4531 17.0273 16.5389 17.0652C17.7468 17.5996 19.0995 18.3635 20.3418 19.4371C16.7086 23.8449 14.7206 29.348 14.7208 35.0666C14.7208 39.9559 16.151 44.6813 18.8565 48.7317C21.7009 52.9899 23.7042 57.6341 24.8111 62.5355C25.7058 66.4966 26.9638 71.3043 28.5506 76.8249C28.7574 77.5439 29.4132 78.012 30.1256 78.012C30.2757 78.012 30.4282 77.9912 30.5795 77.9477C31.4502 77.6979 31.9529 76.7894 31.7028 75.919V75.919ZM26.9229 6.50853C28.1258 10.0871 30.5813 12.9818 34.1218 15.0022C30.5813 17.0225 28.1258 19.917 26.9229 23.4958C25.7202 19.9175 23.2648 17.0228 19.7243 15.0022C23.2645 12.9816 25.7202 10.0868 26.9229 6.50853Z" fill="#04707B"/>
<path d="M109.251 41.2819L106.754 41.2638C103.806 41.2423 101.453 40.8398 99.6029 40.2921C99.9721 38.5825 100.162 36.8306 100.162 35.0668C100.162 23.5251 91.9639 13.3926 80.6683 10.9743C79.783 10.7847 78.9111 11.3488 78.7214 12.2345C78.5318 13.1203 79.0962 13.9918 79.9817 14.1814C89.7749 16.2781 96.8825 25.0618 96.8823 35.067C96.8823 36.4093 96.7554 37.743 96.5089 39.0507C95.1857 38.3496 94.3984 37.6634 94.0368 37.3015C93.6052 36.8699 93.1998 36.4003 92.8317 35.905C92.1271 34.9572 91.0456 34.4121 89.8648 34.4092C89.8615 34.4092 89.8587 34.4092 89.8554 34.4092C88.6748 34.4092 87.5913 34.9509 86.8815 35.8963C86.5144 36.3854 86.1034 36.8584 85.66 37.3018C84.2042 38.7578 80.6162 41.2084 72.9429 41.264L70.4463 41.2821C68.9304 41.2931 67.6971 42.5354 67.6971 44.0511V60.8342C67.6971 64.6225 68.5778 68.4236 70.2442 71.8264C71.9104 75.2286 74.3731 78.2551 77.3661 80.578L80.9695 83.3747C79.6513 87.7044 78.1708 92.3891 76.56 97.3228C75.7088 99.9292 73.4863 100.781 71.688 100.707C69.8905 100.633 67.7432 99.6048 67.1069 96.9374C64.2861 85.1087 62.1494 75.0985 60.7566 67.1848C60.4685 65.5472 59.1052 64.4036 57.4414 64.4034C57.4414 64.4034 57.4414 64.4034 57.4412 64.4034C55.7776 64.4034 54.4141 65.5472 54.1258 67.1846C52.7322 75.1026 50.5954 85.1129 47.7755 96.9372C47.1392 99.6046 44.9917 100.633 43.1945 100.707C41.4011 100.779 39.1736 99.9295 38.3227 97.3226C36.6232 92.1177 35.067 87.1875 33.6981 82.6694C33.4354 81.8025 32.5186 81.3132 31.6532 81.5757C30.7865 81.8384 30.2967 82.7539 30.5595 83.6206C31.9354 88.1609 33.4981 93.1134 35.2051 98.3407C36.3743 101.922 39.5628 104.14 43.3279 103.984C47.0932 103.83 50.0912 101.363 50.9653 97.6982C53.8008 85.8105 55.9509 75.7355 57.3559 67.7533C57.3625 67.7148 57.369 67.696 57.3671 67.6988C57.397 67.6776 57.4861 67.6778 57.5086 67.6914C57.5116 67.6958 57.5202 67.7155 57.5267 67.7533C58.9309 75.7311 61.081 85.8061 63.9173 97.6984C64.7912 101.363 67.7892 103.83 71.5545 103.984C71.6775 103.989 71.7995 103.991 71.9212 103.991C75.5257 103.991 78.5469 101.805 79.678 98.3409C81.148 93.8384 82.5113 89.5393 83.742 85.5265L85.5799 86.953C86.7955 87.8962 88.3112 88.4158 89.8486 88.4158C91.386 88.4158 92.9017 87.8962 94.1175 86.953L102.331 80.5784C105.324 78.2555 107.786 75.2293 109.453 71.8269C111.119 68.4233 112 64.6223 112 60.834V44.0509C112 42.5351 110.767 41.2929 109.251 41.2819V41.2819ZM108.721 60.834C108.721 64.1253 107.955 67.4276 106.508 70.3838C105.06 73.3397 102.921 75.9689 100.32 77.9869L92.1072 84.3612C91.4544 84.8676 90.6735 85.1354 89.8488 85.1354C89.0241 85.1354 88.2432 84.8679 87.5909 84.3615L79.3775 77.9869C76.7772 75.9687 74.6376 73.3395 73.1899 70.3838C71.7422 67.4276 70.977 64.1253 70.977 60.834V44.5577L72.9672 44.5433C81.8104 44.4789 86.1686 41.4313 87.9794 39.6203C88.5317 39.0677 89.0449 38.4769 89.5047 37.8648C89.6196 37.7117 89.7738 37.6885 89.856 37.6885H89.8573C89.9553 37.6887 90.0942 37.7189 90.2001 37.8611C90.6634 38.4843 91.1742 39.076 91.7182 39.6203C93.1762 41.0783 97.5576 44.4765 106.731 44.5433L108.721 44.5577V60.834Z" fill="#04707B"/>
<path d="M103.953 47.0766C101.085 46.7529 98.4185 46.1461 96.0258 45.2728C94.4351 44.6925 92.9994 44.0016 91.7582 43.2194C90.598 42.4886 89.0995 42.4886 87.9397 43.2194C86.6985 44.0014 85.2629 44.6925 83.6721 45.273C81.2797 46.1463 78.6129 46.7531 75.7453 47.0768C74.5529 47.2114 73.6538 48.2185 73.6538 49.4194V60.6942C73.6538 66.7079 76.3783 72.2716 81.1292 75.9588L88.4032 81.6043C88.8289 81.9344 89.3391 82.0996 89.8492 82.0996C90.3593 82.0996 90.8694 81.9344 91.2951 81.6039L98.5688 75.9586C102.225 73.1212 104.741 69.0824 105.655 64.586C105.835 63.6986 105.262 62.833 104.374 62.6527C103.487 62.472 102.621 63.0456 102.441 63.9331C101.684 67.6608 99.5943 71.0114 96.558 73.368L89.8492 78.5749L83.1403 73.368C79.1961 70.3066 76.9335 65.687 76.9335 60.694V50.2349C79.7506 49.8628 82.3922 49.2311 84.7967 48.3537C86.6053 47.6937 88.251 46.8999 89.6886 45.994C89.7877 45.9315 89.9107 45.9315 90.0097 45.994C91.4474 46.8999 93.0933 47.6939 94.9019 48.3537C97.3062 49.2313 99.9478 49.8631 102.765 50.2349V56.2096C102.765 57.1153 103.499 57.8494 104.405 57.8494C105.31 57.8494 106.044 57.1153 106.044 56.2096V49.4192C106.044 48.2183 105.145 47.2111 103.953 47.0766V47.0766Z" fill="#04707B"/>
<path d="M96.9837 53.1554L88.8118 63.5259L84.8391 58.3387C84.2888 57.6199 83.26 57.4829 82.5403 58.0337C81.8215 58.5843 81.685 59.6136 82.2356 60.3326L87.4915 67.1956C87.7993 67.5977 88.2755 67.8348 88.7819 67.8383H88.7932C89.2955 67.8383 89.77 67.6082 90.081 67.2136L99.5593 55.1852C100.12 54.4738 99.9976 53.4428 99.2863 52.8824C98.5753 52.322 97.5439 52.444 96.9837 53.1554Z" fill="#04707B"/>
<path d="M12.5025 60.1602C12.4246 60.1082 12.3421 60.0631 12.2566 60.0253C10.4399 59.2216 9.31224 57.9708 8.90515 56.3076L8.56171 54.9039C8.56171 54.9037 8.56149 54.9032 8.56149 54.903C8.34974 54.04 7.58127 53.4374 6.69271 53.4374C5.80436 53.4374 5.03589 54.04 4.82393 54.9039L4.48049 56.3076C4.07339 57.9708 2.94574 59.2216 1.12902 60.0253C1.04349 60.0631 0.96102 60.1084 0.883145 60.1602C0.330582 60.5284 0.000707031 61.1446 0.000488281 61.8087C0.000488281 62.4726 0.330145 63.0891 0.882707 63.4575C0.960801 63.5095 1.04327 63.5548 1.12902 63.5929C2.94574 64.3965 4.07339 65.6476 4.48049 67.3105L4.82414 68.7153C5.03589 69.5783 5.80436 70.1812 6.69271 70.1812C7.58127 70.1812 8.34974 69.5785 8.56171 68.7145L8.90515 67.3107C9.31224 65.6478 10.4399 64.3968 12.2566 63.5931C12.8 63.3328 13.2915 62.7658 13.3851 61.809C13.3849 61.1446 13.0551 60.5282 12.5025 60.1602V60.1602ZM6.69271 64.1675C6.14539 63.2674 5.42418 62.4764 4.54152 61.8087C5.42418 61.1411 6.14518 60.3503 6.69249 59.45C7.2398 60.3501 7.96102 61.1411 8.84368 61.8087C7.96102 62.4766 7.2398 63.2674 6.69271 64.1675V64.1675Z" fill="#04707B"/>
<path d="M47.5618 30.9912C45.745 30.1875 44.6174 28.9367 44.2103 27.2734L43.8666 25.8699C43.6553 25.0062 42.8869 24.4031 41.9979 24.4031C41.1089 24.4031 40.3404 25.0062 40.1291 25.8696L39.7854 27.2736C39.3783 28.9367 38.2507 30.1878 36.434 30.9912C36.3482 31.0293 36.2657 31.0746 36.1876 31.1266C35.6351 31.495 35.3054 32.1114 35.3054 32.7754C35.3056 33.4393 35.6355 34.0557 36.1881 34.4239C36.266 34.4759 36.3484 34.521 36.434 34.5588C38.2507 35.3625 39.3783 36.6133 39.7854 38.2767L40.1291 39.6802C40.3404 40.5438 41.1089 41.1469 41.9979 41.1469C42.8869 41.1469 43.6553 40.5438 43.8666 39.6806L44.2103 38.2769C44.6174 36.6138 45.745 35.3629 47.5618 34.559C48.1049 34.2989 48.5962 33.7322 48.6903 32.7756C48.6853 32.2915 48.3595 31.3679 47.5618 30.9912ZM41.9976 35.1339C41.4503 34.2338 40.7291 33.4425 39.8467 32.7751C40.7293 32.1075 41.4503 31.3165 41.9976 30.4164C42.5449 31.3165 43.266 32.1077 44.1486 32.7751C43.2662 33.4425 42.5449 34.2338 41.9976 35.1339Z" fill="#04707B"/>
</svg>
