<svg width="108" height="132" viewBox="0 0 108 132" fill="none" xmlns="http://www.w3.org/2000/svg">
<path d="M12.7541 60.2312V72.1896V72.1937C12.7603 75.6009 15.5323 78.3729 18.9416 78.3729H43.6875V80.4354H41.6229C38.2116 80.4354 35.4354 83.2116 35.4354 86.6229C35.4354 90.0343 38.2116 92.8104 41.6229 92.8104H43.6875V94.8729H41.6229C38.2116 94.8729 35.4354 97.6491 35.4354 101.06C35.4354 104.472 38.2116 107.248 41.6229 107.248H43.6875V109.312H41.6229C38.2116 109.312 35.4354 112.089 35.4354 115.5C35.4354 118.911 38.2116 121.688 41.6229 121.688H44.7662L52.3871 131.225C52.779 131.713 53.373 132 54 132C54.627 132 55.221 131.713 55.6108 131.225L63.2338 121.688H66.3771C69.7884 121.688 72.5646 118.911 72.5646 115.5C72.5646 112.089 69.7884 109.312 66.3771 109.312H64.3125V107.248H66.3771C69.7884 107.248 72.5646 104.472 72.5646 101.06C72.5646 97.6491 69.7884 94.8729 66.3771 94.8729H64.3125V92.8104H66.3771C69.7884 92.8104 72.5646 90.0343 72.5646 86.6229C72.5646 83.2116 69.7884 80.4354 66.3771 80.4354H64.3125V78.3729H89.0584C92.4677 78.3729 95.2397 75.6009 95.2459 72.1937C95.2459 72.1916 95.2459 72.1916 95.2459 72.1896V60.2312C103.108 53.7364 107.625 44.2654 107.625 34.0312C107.625 15.2666 92.3584 0 73.5938 0C66.5091 0 59.7688 2.15119 54 6.23906C48.2312 2.15119 41.4909 0 34.4062 0C15.6416 0 0.375 15.2666 0.375 34.0312C0.375 44.2654 4.89394 53.7364 12.7541 60.2312V60.2312ZM54 126.633L50.0462 121.688H57.9538L54 126.633ZM66.3771 117.562H41.6229C40.4844 117.562 39.5604 116.638 39.5604 115.5C39.5604 114.362 40.4844 113.438 41.6229 113.438H66.3771C67.5156 113.438 68.4396 114.362 68.4396 115.5C68.4396 116.638 67.5156 117.562 66.3771 117.562ZM60.1875 109.312H47.8125V107.248H60.1875V109.312ZM66.3771 103.123H41.6229C40.4844 103.123 39.5604 102.199 39.5604 101.06C39.5604 99.9219 40.4844 98.9979 41.6229 98.9979H45.7397C45.7438 98.9979 45.7459 99 45.75 99C45.7541 99 45.7562 98.9979 45.7603 98.9979H62.2397C62.2438 98.9979 62.2459 99 62.25 99C62.2541 99 62.2562 98.9979 62.2603 98.9979H66.3771C67.5156 98.9979 68.4396 99.9219 68.4396 101.06C68.4396 102.199 67.5156 103.123 66.3771 103.123ZM60.1875 94.8729H47.8125V92.8104H60.1875V94.8729ZM66.3771 88.6854H41.6229C40.4844 88.6854 39.5604 87.7614 39.5604 86.6229C39.5604 85.4844 40.4844 84.5604 41.6229 84.5604H45.7397C45.7438 84.5604 45.7459 84.5625 45.75 84.5625C45.7541 84.5625 45.7562 84.5604 45.7603 84.5604H62.2397C62.2438 84.5604 62.2459 84.5625 62.25 84.5625C62.2541 84.5625 62.2562 84.5604 62.2603 84.5604H66.3771C67.5156 84.5604 68.4396 85.4844 68.4396 86.6229C68.4396 87.7614 67.5156 88.6854 66.3771 88.6854ZM60.1875 80.4354H47.8125V78.3729H60.1875V80.4354ZM34.4062 4.125C41.0888 4.125 47.4268 6.30712 52.7336 10.4362C53.4782 11.0158 54.5218 11.0158 55.2684 10.4362C60.5753 6.30712 66.9112 4.125 73.5938 4.125C90.0834 4.125 103.5 17.5416 103.5 34.0312C103.5 43.3373 99.2781 51.9523 91.9191 57.6675C91.884 57.6943 91.8696 57.7356 91.8366 57.7644C91.7273 57.8593 91.6447 57.9707 91.5581 58.0841C91.4818 58.1873 91.4034 58.2842 91.3457 58.3976C91.2921 58.5111 91.2652 58.6286 91.2281 58.7524C91.1889 58.8926 91.1518 59.0288 91.1436 59.1731C91.1415 59.2164 91.1188 59.2536 91.1188 59.2969V72.1854C91.1188 73.3239 90.1948 74.2479 89.0563 74.2479H18.9416C17.8031 74.2479 16.8791 73.3239 16.8791 72.1854V59.2969C16.8791 59.2515 16.8544 59.2123 16.8523 59.1669C16.8441 59.0308 16.809 58.9029 16.7719 58.7689C16.7368 58.6389 16.7079 58.5111 16.6481 58.3914C16.5966 58.2842 16.5182 58.1934 16.4481 58.0965C16.3573 57.9727 16.2707 57.8573 16.1552 57.7562C16.1222 57.7294 16.1098 57.6902 16.0768 57.6654C8.71988 51.9523 4.5 43.3373 4.5 34.0312C4.5 17.5416 17.9166 4.125 34.4062 4.125V4.125Z" fill="#04707B"/>
<path d="M73.5938 14.4375C84.3971 14.4375 93.1875 23.2279 93.1875 34.0312C93.1875 35.1697 94.1094 36.0938 95.25 36.0938C96.3906 36.0938 97.3125 35.1697 97.3125 34.0312C97.3125 20.9529 86.6721 10.3125 73.5938 10.3125C72.4532 10.3125 71.5312 11.2365 71.5312 12.375C71.5312 13.5135 72.4532 14.4375 73.5938 14.4375Z" fill="#04707B"/>
</svg>
