<svg width="154" height="156" viewBox="0 0 154 156" fill="none" xmlns="http://www.w3.org/2000/svg">
<path d="M131.479 55.7874C129.947 55.7082 128.713 56.8 128.608 58.2806C125.66 100.106 113.187 150.621 102.205 150.636C99.5946 149.542 97.0513 135.107 95.3702 125.554C91.8116 105.352 88.1309 84.4631 76.5558 84.4225C66.8607 84.4627 63.0847 103.35 59.0837 123.346C57.1188 133.165 53.831 149.599 51.0147 150.621C42.6147 150.621 27.7371 111.023 24.3965 56.3209C24.3078 54.8387 23.0435 53.7052 21.5495 53.8005C20.0649 53.8907 18.9365 55.1657 19.0279 56.6487C19.949 71.7607 23.2011 96.3255 28.3813 117.139C34.8877 143.288 42.2924 156 51.0147 156C57.7106 156 60.3208 144.582 64.3581 124.402C66.9454 111.468 71.2731 89.8246 76.5558 89.8017C83.6134 89.8258 87.5013 111.888 90.0725 126.486C93.2032 144.26 95.2705 156 102.118 156C122.874 156 132.523 79.2194 133.972 58.6596C134.077 57.1782 132.961 55.8926 131.479 55.7874Z" fill="#04707B"/>
<path d="M102.119 0C97.2543 0 92.647 2.18273 88.1929 4.29256C84.0926 6.23574 80.2208 8.069 76.5669 8.069C72.913 8.069 69.0412 6.23614 64.9409 4.29256C60.4864 2.18273 55.8791 0 51.0148 0C32.9388 0 19.6844 18.7659 18.7857 45.6344C18.7361 47.1189 19.8991 48.3632 21.3841 48.4128C21.4125 48.414 21.4448 48.414 21.4755 48.414C22.9171 48.414 24.1129 47.2682 24.1598 45.8144C24.945 22.3848 36.2404 5.3792 51.0148 5.3792C54.6687 5.3792 58.5405 7.21206 62.6408 9.15563C67.0949 11.2659 71.7023 13.4482 76.5665 13.4482C81.4308 13.4482 86.0381 11.2655 90.4922 9.15563C94.5925 7.21245 98.4643 5.3792 102.118 5.3792C116.782 5.3792 127.807 21.544 128.926 44.6888C129 46.1722 130.298 47.2761 131.745 47.2454C133.225 47.1729 134.371 45.9125 134.3 44.4279C133.033 18.2695 119.8 0 102.119 0Z" fill="#04707B"/>
<path d="M107.498 29.675H45.6355C44.1979 29.675 43.0348 30.8409 43.0348 32.2758V69.931C43.0348 71.3671 44.1994 72.5317 45.6355 72.5317H107.498C108.934 72.5317 110.099 71.3659 110.099 69.931V32.2758C110.099 30.8397 108.934 29.675 107.498 29.675ZM104.898 67.3302H48.2363V34.8766H104.898V67.3302Z" fill="#04707B"/>
<path d="M45.6356 43.1233H2.60076C1.16307 43.1233 0 44.2891 0 45.724V56.4829C0 57.919 1.16465 59.0836 2.60076 59.0836H45.6356C47.0717 59.0836 48.2363 57.9178 48.2363 56.4829V45.724C48.2363 44.2879 47.0717 43.1233 45.6356 43.1233ZM43.036 53.8821H5.20151V48.324H43.0356V53.8821H43.036Z" fill="#04707B"/>
<path d="M150.533 43.1233H107.498C106.06 43.1233 104.897 44.2891 104.897 45.724V56.4829C104.897 57.919 106.062 59.0836 107.498 59.0836H150.533C151.969 59.0836 153.133 57.9178 153.133 56.4829V45.724C153.133 44.2879 151.969 43.1233 150.533 43.1233ZM147.933 53.8821H110.099V48.324H147.933V53.8821Z" fill="#04707B"/>
<path d="M67.1527 37.655H59.0837C57.5976 37.655 56.3939 38.8599 56.3939 40.3448V61.862C56.3939 63.3466 57.5976 64.5518 59.0837 64.5518H67.1527C68.6389 64.5518 69.8425 63.347 69.8425 61.862V40.3448C69.8425 38.8603 68.6389 37.655 67.1527 37.655ZM64.4629 59.1726H61.7731V43.0346H64.4629V59.1726Z" fill="#04707B"/>
<path d="M91.3598 37.655H83.2907C81.8046 37.655 80.601 38.8599 80.601 40.3448V61.862C80.601 63.3466 81.8046 64.5518 83.2907 64.5518H91.3598C92.8459 64.5518 94.0495 63.347 94.0495 61.862V40.3448C94.0495 38.8603 92.8459 37.655 91.3598 37.655ZM88.67 59.1726H85.9802V43.0346H88.67V59.1726Z" fill="#04707B"/>
<path d="M107.498 48.4141H91.3597C89.8736 48.4141 88.6699 49.6189 88.6699 51.1039C88.6699 52.5888 89.8736 53.7937 91.3597 53.7937H107.498C108.984 53.7937 110.188 52.5888 110.188 51.1039C110.188 49.6189 108.984 48.4141 107.498 48.4141Z" fill="#04707B"/>
<path d="M83.2908 48.4141H67.1528C65.6667 48.4141 64.463 49.6189 64.463 51.1039C64.463 52.5888 65.6667 53.7937 67.1528 53.7937H83.2908C84.777 53.7937 85.9806 52.5888 85.9806 51.1039C85.9806 49.6189 84.777 48.4141 83.2908 48.4141Z" fill="#04707B"/>
<path d="M56.394 48.4141H45.6352C44.1491 48.4141 42.9454 49.6189 42.9454 51.1039C42.9454 52.5888 44.1491 53.7937 45.6352 53.7937H56.394C57.8802 53.7937 59.0838 52.5888 59.0838 51.1039C59.0838 49.6189 57.8802 48.4141 56.394 48.4141Z" fill="#04707B"/>
</svg>
