<svg width="740" height="950" viewBox="0 0 740 950" fill="none" xmlns="http://www.w3.org/2000/svg">
<g clip-path="url(#clip0)">
<path d="M558.578 400.216C665.206 301.06 832.151 307.053 931.259 414.031L1110.84 607.183L994.818 715.37L980.202 699.403L815.236 522.217C775.866 479.837 709.417 477.458 667.049 516.774C624.68 556.09 622.354 622.505 661.723 664.885L826.69 842.071L841.305 858.038L724.962 966.042L544.878 773.026C445.588 666.368 451.949 499.372 558.578 400.216Z" stroke="#066D76" stroke-width="2" stroke-miterlimit="10"/>
<path d="M301.022 426.738C197.033 324.595 195.819 157.507 297.926 53.6523L482.577 -133.897L595.927 -22.1745L580.741 -6.71258L411.277 165.375C370.781 206.607 371.102 272.84 412.706 313.533C453.99 354.043 520.255 353.776 560.934 312.225L730.58 139.818L745.766 124.356L859.117 236.079L674.284 423.948C571.858 527.621 404.508 529.017 301.022 426.738Z" stroke="#066D76" stroke-width="2" stroke-miterlimit="10"/>
</g>
<defs>
<clipPath id="clip0">
<rect width="992.557" height="839.032" fill="white" transform="translate(416.055 -174) rotate(29.7275)"/>
</clipPath>
</defs>
</svg>
