<svg width="550" height="616" viewBox="0 0 550 616" fill="none" xmlns="http://www.w3.org/2000/svg">
<g clip-path="url(#clip0)">
<path d="M191.539 263.072C75.7638 223.513 13.8811 97.5245 53.7171 -18.3544L125.389 -228.051L251.584 -185.124L245.568 -167.959L179.911 24.5728C164.172 70.5583 188.808 120.703 234.749 136.455C280.69 152.207 330.789 127.545 346.528 81.5596L412.185 -110.973L418.201 -128.137L544.387 -84.9005L473.015 125.113C433.488 241 307.315 302.631 191.539 263.072Z" stroke="#066D76" stroke-width="2" stroke-miterlimit="10"/>
<path d="M313.492 443.234C279.174 560.805 155.943 628.081 38.4843 593.737L-173.734 531.525L-136.042 403.216L-118.561 408.317L76.1761 465.428C122.792 479.032 171.704 452.483 185.306 405.513C198.9 358.852 172.378 309.895 125.454 296.282L-69.5924 239.164L-87.0734 234.062L-49.3816 105.753L163.145 167.973C280.596 202.627 348.111 325.98 313.492 443.234Z" stroke="#066D76" stroke-width="2" stroke-miterlimit="10"/>
</g>
<defs>
<clipPath id="clip0">
<rect width="834" height="705" fill="white" transform="translate(-177 596.709) rotate(-88.4877)"/>
</clipPath>
</defs>
</svg>
