<svg width="128" height="128" viewBox="0 0 128 128" fill="none" xmlns="http://www.w3.org/2000/svg">
<path d="M126.447 76.8838L105.755 70.9727C102.723 70.1063 99.4842 70.3213 96.5932 71.5807C97.3185 69.2533 97.9819 66.8876 98.5024 64.4515C98.7499 63.2995 98.0166 62.1652 96.8646 61.9177C96.7201 61.8865 96.5724 61.8708 96.4247 61.8703H89.1312L86.0764 49.6491C85.3629 46.801 82.8028 44.8038 79.8667 44.8046H48.133C45.1961 44.804 42.636 46.8023 41.9232 49.6512L38.8684 61.8703H31.575C30.3969 61.87 29.4415 62.8246 29.4412 64.003C29.4412 64.1536 29.4572 64.304 29.4887 64.4515C30.0092 66.8855 30.6726 69.2555 31.4086 71.5828C28.5143 70.3218 25.2716 70.1061 22.2358 70.9727L1.5436 76.8838C0.630318 77.1481 0.00208683 77.9851 0.00342009 78.936V125.867C0.00342009 127.045 0.958566 128 2.13663 128H125.863C127.041 128 127.996 127.045 127.996 125.867V78.936C127.996 77.9827 127.364 77.1449 126.447 76.8838ZM40.5345 66.1367C41.5136 66.1364 42.3666 65.4698 42.6037 64.5197L46.0616 50.688C46.2987 49.7374 47.153 49.0702 48.133 49.071H79.8667C80.8458 49.0699 81.7002 49.736 81.938 50.6858L84.7347 61.8703H46.9341V66.1367H93.7325C93.055 68.8597 92.2233 71.542 91.241 74.1704L89.7328 78.1851C89.6573 78.3907 89.6133 78.6064 89.6026 78.8251L87.8406 110.535C87.6865 113.268 85.3466 115.358 82.6142 115.204C82.4276 115.194 82.2417 115.173 82.0575 115.141C79.8805 114.692 78.2321 112.906 77.9596 110.7L73.4606 80.681C73.066 78.087 71.6269 75.7676 69.4779 74.2621C67.8775 73.136 65.9674 72.5331 64.0105 72.5363C63.3409 72.5401 62.6732 72.6115 62.0181 72.7497C58.0426 73.6525 55.0451 76.9289 54.4985 80.9689L49.9953 110.983C49.603 113.617 47.197 115.467 44.5513 115.171C42.0648 114.786 40.2078 112.679 40.1377 110.164L38.4013 78.8165C38.3906 78.5979 38.3466 78.3821 38.2711 78.1766L36.763 74.164C35.7798 71.5375 34.9465 68.8576 34.2671 66.1367H40.5345V66.1367ZM123.73 123.733H4.26985V80.5444L23.4154 75.0749C27.6104 73.8837 32.0717 75.7514 34.1668 79.5759L35.8734 110.401C35.9494 115.44 40.0638 119.482 45.1038 119.467C49.6676 119.472 53.5449 116.131 54.2148 111.617L58.718 81.5918C58.9948 79.32 60.6512 77.4577 62.8756 76.918C65.74 76.3009 68.5622 78.1227 69.1793 80.9871C69.2027 81.0956 69.2225 81.2046 69.239 81.3145L73.7379 111.325C74.2987 115.36 77.3721 118.586 81.3748 119.343C86.3959 120.183 91.1468 116.793 91.9865 111.772C92.0422 111.438 92.0798 111.102 92.0985 110.764L93.8328 79.5759C95.9292 75.7527 100.389 73.8853 104.584 75.0749L123.73 80.5444V123.733V123.733Z" fill="#04707B"/>
<path d="M82.1998 0.0101064C79.7564 0.0103731 77.3387 0.506612 75.0927 1.46842C68.0104 4.48905 60.0023 4.48905 52.9201 1.46842C43.7531 -2.46549 33.1329 1.77694 29.199 10.9439C28.2329 13.1952 27.7348 15.6194 27.7354 18.0691C27.742 23.6208 28.3324 29.1562 29.4974 34.5844C29.707 35.5654 30.572 36.2678 31.5751 36.2718H96.4248C97.4312 36.2718 98.3007 35.5686 98.5111 34.5844C99.6732 29.1559 100.261 23.6205 100.265 18.0691C100.263 8.09365 92.1752 0.0085065 82.1998 0.0101064ZM94.6713 32.0054H33.3286C32.4508 27.4118 32.0066 22.7459 32.0018 18.0691C32.0052 10.4466 38.1876 4.27013 45.8101 4.2736C47.675 4.2744 49.5203 4.65331 51.2348 5.38714C59.3893 8.86641 68.6107 8.86641 76.7651 5.38714C83.7727 2.38757 91.8851 5.63672 94.8846 12.6443C95.6185 14.3589 95.9974 16.2041 95.9982 18.0691C95.9936 22.7459 95.5494 27.4118 94.6713 32.0054Z" fill="#04707B"/>
<path d="M43.7346 8.82166C39.2367 11.2047 36.3803 15.8346 36.2683 20.9234V23.4726H40.5347V20.9127C40.6627 17.3548 42.7021 14.1432 45.8678 12.5142L43.7346 8.82166Z" fill="#04707B"/>
</svg>
