<svg width="130" height="130" viewBox="0 0 130 130" fill="none" xmlns="http://www.w3.org/2000/svg">
<path d="M127.975 78.0845L107.032 72.0785C103.978 71.2015 100.715 71.4144 97.8 72.6808C100.236 64.9147 101.475 56.8203 101.475 48.6785C101.454 39.046 94.0293 31.0621 84.455 30.3766L84.1592 34.71C91.4673 35.234 97.1356 41.3259 97.1566 48.6785C97.1623 57.7801 95.5314 66.808 92.342 75.3285L90.8155 79.4083C90.7384 79.6168 90.6941 79.8362 90.6838 80.0583L88.9005 112.266C88.7877 114.14 87.6415 115.795 85.9296 116.554L84.2348 72.3363L84.2542 72.2821C87.0793 64.7359 88.5248 56.7398 88.5205 48.6785C88.517 45.728 86.1342 43.3368 83.1941 43.3333V47.6666C83.7509 47.6666 84.2024 48.1197 84.2024 48.6785C84.2059 55.1489 83.2103 61.5807 81.251 67.7451C72.5773 58.6113 58.1677 58.2633 49.066 66.9676C48.8015 67.2205 48.5432 67.4797 48.2912 67.7451C46.3321 61.5807 45.3365 55.1489 45.3398 48.6785C45.3589 48.1067 45.8363 47.6591 46.4061 47.6783C46.5232 47.6823 46.6384 47.7062 46.7475 47.749C52.4408 50.2046 58.5741 51.4678 64.7711 51.4605C67.0445 51.4607 69.3148 51.2928 71.5634 50.9578L70.9287 46.6721C63.3105 47.8075 55.5277 46.8019 48.4445 43.7666C45.7403 42.6048 42.6094 43.8628 41.4516 46.5765C41.1682 47.2409 41.022 47.9559 41.0217 48.6785C41.0174 56.7398 42.4628 64.7359 45.2879 72.2821L45.3074 72.3363L43.6125 116.554C41.8969 115.793 40.7496 114.132 40.6417 112.253L38.8627 80.0453C38.8524 79.8232 38.8081 79.6038 38.7309 79.3953L37.2045 75.3155C34.0153 66.7994 32.3828 57.776 32.3855 48.6785C32.3866 40.9389 38.6397 34.6655 46.3523 34.6666C48.2429 34.6669 50.1137 35.0526 51.8514 35.7998C58.07 38.4916 64.9694 39.173 71.5915 37.7498L70.6933 33.5118C64.9433 34.7482 58.9522 34.1591 53.5506 31.8261C44.2713 27.8343 33.5242 32.1471 29.5461 41.4594C28.5716 43.7406 28.0685 46.1965 28.0675 48.6785C28.0656 56.8203 29.3032 64.9144 31.7378 72.6808C28.8226 71.4144 25.56 71.2015 22.5058 72.0785L1.56314 78.0845C0.637725 78.3512 0.00026988 79.2006 0 80.1666V127.833C0 129.03 0.966708 130 2.15904 130H127.383C128.575 130 129.542 129.03 129.542 127.833V80.1666C129.541 79.1992 128.902 78.3496 127.975 78.0845ZM43.2628 125.667H4.31807V81.8003L23.6954 76.245C27.9412 75.0343 32.4571 76.9315 34.577 80.8166L36.3323 112.493C36.5676 116.602 39.4537 120.072 43.4398 121.039L43.2628 125.667ZM49.5931 73.0621C52.9895 67.9954 58.6861 64.9694 64.7711 65C70.8536 64.9718 76.5475 67.9973 79.9426 73.0621L81.6116 116.415C80.1877 115.68 79.1994 114.306 78.9516 112.719L74.3529 81.939C73.5565 76.632 68.6239 72.9776 63.3356 73.7769C59.1336 74.412 55.8348 77.7221 55.2022 81.939L50.6035 112.719C50.3528 114.309 49.3593 115.683 47.9306 116.415L49.5931 73.0621ZM47.583 125.667L47.76 121.056C51.4663 120.178 54.2749 117.137 54.8676 113.362L59.4685 82.5825C59.9038 79.6437 62.6309 77.6154 65.5594 78.0522C67.8936 78.4005 69.7266 80.2398 70.0737 82.5825L74.6746 113.349C75.2664 117.125 78.0753 120.167 81.7821 121.045L81.9592 125.667H47.583ZM125.224 125.667H86.2794L86.1024 121.039C90.0885 120.072 92.9746 116.602 93.2099 112.493L94.9652 80.8166C97.0846 76.931 101.601 75.0335 105.847 76.245L125.224 81.8003V125.667V125.667Z" fill="#04707B"/>
<path d="M127.383 6.5H88.5204V2.16667C88.5204 0.970125 87.5537 0 86.3614 0H69.0891C67.8968 0 66.9301 0.970125 66.9301 2.16667V23.8333C66.9301 25.0299 67.8968 26 69.0891 26H75.5662V58.5H79.8843V26H86.3614C87.5537 26 88.5204 25.0299 88.5204 23.8333V19.5H127.383C128.575 19.5 129.542 18.5299 129.542 17.3333V8.66667C129.542 7.47013 128.575 6.5 127.383 6.5ZM84.2023 21.6667H71.2481V4.33333H84.2023V21.6667ZM125.224 15.1667H88.5204V10.8333H125.224V15.1667Z" fill="#04707B"/>
</svg>
