<svg width="124" height="141" viewBox="0 0 124 141" fill="none" xmlns="http://www.w3.org/2000/svg">
<g clip-path="url(#clip0)">
<path d="M98.2195 24.9268C94.7303 24.9226 91.2769 25.6317 88.0718 27.0107C79.1472 30.8126 69.0584 30.8126 60.1338 27.0107C47.0467 21.4155 31.9017 27.4887 26.3065 40.5758C24.9387 43.775 24.2327 47.2184 24.2317 50.6978C24.2449 61.5192 26.7641 72.1903 31.5917 81.8752L35.3853 89.468L40.0961 131.838C40.7456 137.689 46.0158 141.906 51.8673 141.257C56.6724 140.724 60.5169 137.023 61.2339 132.242L67.3053 91.7596C67.864 88.001 71.3643 85.4069 75.1229 85.9657C78.1188 86.4111 80.4714 88.7634 80.9169 91.7596L86.9883 132.242C87.8612 138.065 93.289 142.077 99.1114 141.204C103.893 140.488 107.593 136.643 108.126 131.838L112.837 89.468L116.631 81.8752C121.458 72.1903 123.977 61.5192 123.99 50.6978C123.98 36.4694 112.448 24.9375 98.2195 24.9268ZM111.673 79.3896H111.665L107.647 87.4257C107.502 87.7187 107.408 88.0346 107.37 88.3595L102.617 131.217C102.31 134.025 99.7834 136.053 96.9749 135.745C94.6635 135.491 92.8138 133.711 92.4722 131.411L86.4008 90.9283C85.3786 84.1409 79.0478 79.4671 72.2604 80.4893C66.8671 81.3016 62.6333 85.5351 61.8214 90.9283L55.7499 131.411C55.335 134.206 52.7333 136.135 49.9386 135.72C47.6386 135.378 45.8582 133.528 45.605 131.217L40.8415 88.3568C40.8031 88.0318 40.7096 87.7159 40.5644 87.4229L36.5464 79.3868C32.105 70.4747 29.787 60.6553 29.7738 50.6978C29.7759 39.5259 38.8342 30.4707 50.0062 30.4724C52.7409 30.4728 55.4468 31.028 57.9613 32.1039C68.2783 36.5044 79.9439 36.5044 90.2609 32.1039C100.532 27.7086 112.422 32.4718 116.817 42.7428C117.893 45.2568 118.448 47.9631 118.448 50.6978C118.435 60.6564 116.116 70.4767 111.673 79.3896Z" fill="#04707B"/>
<path d="M44.8623 36.4767C38.8927 40.4477 35.3087 47.1447 35.3159 54.3141V58.1798H40.8581V54.3141C40.8522 48.9975 43.5107 44.0314 47.9382 41.0878L44.8623 36.4767Z" fill="#04707B"/>
<path d="M68.9017 35.6318C68.4088 32.5372 66.1276 30.1137 63.2146 29.5901C51.9029 27.5824 43.04 18.164 41.1536 6.14614C40.514 2.13065 36.9312 -0.574919 33.1514 0.104469C30.2384 0.628069 27.9572 3.05156 27.4643 6.14614C25.5779 18.164 16.715 27.5824 5.40329 29.5901C1.62348 30.2695 -0.92329 34.0758 -0.283777 38.0912C0.209091 41.1858 2.49034 43.6093 5.40329 44.1329C16.715 46.1407 25.5779 55.559 27.4643 67.5769C28.1038 71.5924 31.6867 74.298 35.4665 73.6186C38.3794 73.095 40.6607 70.6715 41.1536 67.5769C43.04 55.559 51.9029 46.1407 63.2146 44.1329C66.9944 43.4535 69.5412 39.6473 68.9017 35.6318ZM34.3089 47.3925C31.6025 43.3005 28.2479 39.7367 24.3961 36.8615C28.2479 33.9863 31.6025 30.4225 34.3089 26.3305C37.0154 30.4225 40.37 33.9863 44.2218 36.8615C40.37 39.7367 37.0154 43.3005 34.3089 47.3925Z" fill="#04707B"/>
</g>
<defs>
<clipPath id="clip0">
<rect width="176" height="165" fill="white" transform="translate(-29 -2)"/>
</clipPath>
</defs>
</svg>
